<?xml version="1.0" encoding="UTF-8" standalone="no"?>
<!-- Created with Inkscape (http://www.inkscape.org/) -->

<svg
   version="1.1"
   id="svg1"
   width="216.90266"
   height="246.75732"
   viewBox="0 0 216.90266 246.75732"
   xmlns="http://www.w3.org/2000/svg"
   xmlns:svg="http://www.w3.org/2000/svg">
  <defs
     id="defs1" />
  <g
     id="g1">
    <path
       id="path1"
       d="m 48.77234,114.83684 h -154.70857 c -2.20095,0 -3.98511,-1.78417 -3.98511,-3.98511 v -177.1003 c 0,-2.20094 1.78416,-3.9851 3.98511,-3.9851 H 48.77234 c 2.20094,0 3.98511,1.78416 3.98511,3.9851 v 177.1003 c 0,2.20094 -1.78417,3.98511 -3.98511,3.98511 z"
       style="fill:#e6e6ff;fill-opacity:1;fill-rule:nonzero;stroke:none"
       transform="matrix(1.3333333,0,0,-1.3333333,146.56,153.11333)" />
    <path
       id="path2"
       d="m 10.10347,99.12952 h -20.20694 c -2.20094,0 -3.98511,-1.78418 -3.98511,-3.98511 V -38.70226 c 0,-2.20094 1.78417,-3.9851 3.98511,-3.9851 h 20.20694 c 2.20094,0 3.98511,1.78416 3.98511,3.9851 V 95.14441 c 0,2.20093 -1.78417,3.98511 -3.98511,3.98511 z"
       style="fill:#ccccff;fill-opacity:1;fill-rule:nonzero;stroke:none"
       transform="matrix(1.3333333,0,0,-1.3333333,146.56,153.11333)" />
    <path
       id="path3"
       d="m -23.9126,99.12952 h -20.20695 c -2.20095,0 -3.98511,-1.78418 -3.98511,-3.98511 V -38.70226 c 0,-2.20094 1.78416,-3.9851 3.98511,-3.9851 h 20.20695 c 2.20095,0 3.98511,1.78416 3.98511,3.9851 V 95.14441 c 0,2.20093 -1.78416,3.98511 -3.98511,3.98511 z"
       style="fill:#ccccff;fill-opacity:1;fill-rule:nonzero;stroke:none"
       transform="matrix(1.3333333,0,0,-1.3333333,146.56,153.11333)" />
    <path
       id="path4"
       d="M 14.28783,-42.88661 C 12.79347,-45.87547 9.30644,-47.868 4.32506,-47.868 H -7.04526 c -4.98138,0 -8.46841,-1.99252 -9.96277,-4.98138 -1.49435,2.98886 -4.98138,4.98138 -9.96277,4.98138 h -11.37034 c -4.98139,0 -8.46842,1.99253 -9.96277,4.98139"
       style="fill:none;stroke:#8c8cff;stroke-width:0.3985;stroke-linecap:butt;stroke-linejoin:miter;stroke-miterlimit:10;stroke-dasharray:none;stroke-opacity:1"
       transform="matrix(1.3333333,0,0,-1.3333333,146.56,153.11333)" />
    <g
       id="g4"
       aria-label="n&#10;g"
       transform="matrix(1.3333333,0,0,1.3333333,116.80667,233.836)">
      <path
         id="path5"
         d="m 0.88035156,-0.58598438 c -0.0351563,0.15234375 -0.09375,0.375 -0.09375,0.421875 0,0.1875 0.140625,0.26953125 0.29296874,0.26953125 0.1171875,0 0.2929688,-0.0703125 0.3632813,-0.26953125 0.011719,-0.0234375 0.1289062,-0.4921875 0.1875,-0.73828125 L 1.8530078,-1.8047344 c 0.058594,-0.2226562 0.1171875,-0.4335937 0.1757813,-0.6679687 0.035156,-0.1640625 0.1171875,-0.4570313 0.1289062,-0.4921875 0.140625,-0.3164063 0.6679688,-1.21875 1.6171875,-1.21875 0.4453125,0 0.5390625,0.3632812 0.5390625,0.6914062 0,0.6210938 -0.4921875,1.8984375 -0.6445312,2.3320313 -0.09375,0.22265622 -0.1054688,0.33984372 -0.1054688,0.45703122 0,0.46875 0.3515625,0.80859375 0.8203125,0.80859375 0.9375,0 1.3007813,-1.45312497 1.3007813,-1.53515627 0,-0.09375 -0.082031,-0.09375 -0.1171875,-0.09375 -0.09375,0 -0.09375,0.023437 -0.1523438,0.1757813 -0.1992187,0.67968747 -0.5273437,1.24218747 -1.0078125,1.24218747 -0.1757812,0 -0.2460937,-0.10546875 -0.2460937,-0.328125 0,-0.2578125 0.09375,-0.4921875 0.1875,-0.71484377 0.1875,-0.5273437 0.5976562,-1.6171875 0.5976562,-2.1914062 0,-0.6679688 -0.421875,-1.0664063 -1.1367187,-1.0664063 -0.9023438,0 -1.3828125,0.6445313 -1.5585938,0.8671875 -0.046875,-0.5507812 -0.4570312,-0.8671875 -0.9140625,-0.8671875 -0.45703124,0 -0.64453124,0.3867188 -0.74999999,0.5742188 -0.15234375,0.3398437 -0.29296875,0.9257812 -0.29296875,0.9609375 0,0.1054687 0.09375,0.1054687 0.1171875,0.1054687 0.09375,0 0.10546875,-0.011719 0.1640625,-0.234375 0.17578125,-0.703125 0.375,-1.1835937 0.72656254,-1.1835937 0.1992187,0 0.3164062,0.1289062 0.3164062,0.4570312 0,0.2109375 -0.035156,0.3164063 -0.1640625,0.8320313 z m 0,0"
         style="fill:#000000;fill-opacity:1;fill-rule:nonzero;stroke:none" />
      <path
         id="path6"
         d="m 9.6957812,-1.0840313 c 0.023437,-0.09375 0.023437,-0.1289062 0.023437,-0.140625 0,-0.1523437 -0.1289062,-0.2226562 -0.234375,-0.2226562 -0.1640625,0 -0.2929687,0.1289062 -0.328125,0.2695312 C 9.0395312,-1.377 8.8051562,-1.5762188 8.441875,-1.5762188 c -0.8671875,0 -1.78125,0.9257813 -1.78125,1.92187505 0,0.72656245 0.4804687,1.14843745 1.0546875,1.14843745 0.328125,0 0.6328125,-0.1640625 0.8789062,-0.375 L 8.4301562,1.7401875 C 8.3598437,2.0331562 8.3129687,2.2206562 8.0434375,2.46675 7.73875,2.7245625 7.4340625,2.7245625 7.2582812,2.7245625 6.941875,2.7245625 6.848125,2.701125 6.7309375,2.6776875 6.9067187,2.5839375 6.9535937,2.419875 6.9535937,2.326125 c 0,-0.1640625 -0.140625,-0.2578125 -0.2695312,-0.2578125 -0.1992188,0 -0.3984375,0.1523437 -0.3984375,0.421875 0,0.421875 0.5976562,0.421875 0.984375,0.421875 1.0898437,0 1.5585937,-0.5507813 1.6640625,-0.9492188 z M 8.723125,0.5683125 C 8.6996875,0.67378125 8.6996875,0.6855 8.5825,0.826125 8.3364062,1.1190937 8.0082812,1.294875 7.73875,1.294875 c -0.3515625,0 -0.5273438,-0.2929688 -0.5273438,-0.65625 0,-0.3046875 0.1875,-1.08984375 0.375,-1.39453125 C 7.879375,-1.2480938 8.2075,-1.3887188 8.441875,-1.3887188 c 0.4921875,0 0.6210937,0.5273438 0.6210937,0.5976563 0,0.0117188 0,0.0234375 -0.023437,0.10546875 z m 0,0"
         style="fill:#000000;fill-opacity:1;fill-rule:nonzero;stroke:none" />
    </g>
    <path
       id="path7"
       d="m -48.30391,-42.88661 c -2.98886,1.49435 -4.98139,4.98138 -4.98139,9.96277 V 18.2583 c 0,4.98139 -1.99252,8.46842 -4.98138,9.96277 2.98886,1.49435 4.98138,4.98138 4.98138,9.96277 V 89.366 c 0,4.98138 1.99253,8.46841 4.98139,9.96277"
       style="fill:none;stroke:#8c8cff;stroke-width:0.3985;stroke-linecap:butt;stroke-linejoin:miter;stroke-miterlimit:10;stroke-dasharray:none;stroke-opacity:1"
       transform="matrix(1.3333333,0,0,-1.3333333,146.56,153.11333)" />
    <g
       id="g7"
       aria-label="n&#10;p"
       transform="matrix(1.3333333,0,0,1.3333333,52.517333,116.44533)">
      <path
         id="path8"
         d="m 0.877625,-0.58595313 c -0.0351563,0.15234375 -0.09375,0.375 -0.09375,0.421875 0,0.1875 0.140625,0.26953125 0.2929687,0.26953125 0.1171875,0 0.2929688,-0.0703125 0.3632813,-0.26953125 0.011719,-0.0234375 0.1289062,-0.4921875 0.1875,-0.73828125 L 1.8502812,-1.8047031 c 0.058594,-0.2226563 0.1171875,-0.4335938 0.1757813,-0.6679688 0.035156,-0.1640625 0.1171875,-0.4570312 0.1289062,-0.4921875 0.140625,-0.3164062 0.6679688,-1.21875 1.6171875,-1.21875 0.4453125,0 0.5390625,0.3632813 0.5390625,0.6914063 0,0.6210937 -0.4921875,1.8984375 -0.6445312,2.3320312 -0.09375,0.22265627 -0.1054688,0.33984377 -0.1054688,0.45703127 0,0.46875 0.3515625,0.80859375 0.8203125,0.80859375 0.9375,0 1.3007813,-1.45312502 1.3007813,-1.53515622 0,-0.09375 -0.082031,-0.09375 -0.1171875,-0.09375 -0.09375,0 -0.09375,0.023437 -0.1523438,0.1757812 -0.1992187,0.67968752 -0.5273437,1.24218752 -1.0078125,1.24218752 -0.1757812,0 -0.2460937,-0.10546875 -0.2460937,-0.328125 0,-0.2578125 0.09375,-0.4921875 0.1875,-0.71484372 0.1875,-0.5273438 0.5976562,-1.6171875 0.5976562,-2.1914063 0,-0.6679687 -0.421875,-1.0664062 -1.1367187,-1.0664062 -0.9023438,0 -1.3828125,0.6445312 -1.5585938,0.8671875 -0.046875,-0.5507813 -0.4570312,-0.8671875 -0.9140625,-0.8671875 -0.4570312,0 -0.6445312,0.3867187 -0.74999995,0.5742187 -0.15234375,0.3398438 -0.29296875,0.9257813 -0.29296875,0.9609375 0,0.1054688 0.09375,0.1054688 0.1171875,0.1054688 0.09375,0 0.10546875,-0.011719 0.1640625,-0.234375 0.17578125,-0.703125 0.375,-1.1835938 0.7265625,-1.1835938 0.1992187,0 0.3164062,0.1289063 0.3164062,0.4570313 0,0.2109375 -0.035156,0.3164062 -0.1640625,0.8320312 z m 0,0"
         style="fill:#000000;fill-opacity:1;fill-rule:nonzero;stroke:none" />
      <path
         id="path9"
         d="m 6.5084844,2.3495937 c -0.058594,0.1875 -0.070312,0.2460938 -0.3515625,0.2460938 -0.082031,0 -0.1875,0 -0.1875,0.1523437 0,0.070312 0.070312,0.09375 0.1054687,0.09375 0.1757813,0 0.4101563,-0.023437 0.5976563,-0.023437 0.234375,0 0.5039062,0.023437 0.7265625,0.023437 0.070312,0 0.140625,-0.011719 0.140625,-0.1523437 0,-0.09375 -0.09375,-0.09375 -0.1757813,-0.09375 -0.1523437,0 -0.3398437,0 -0.3398437,-0.082031 0,-0.035156 0.046875,-0.2226562 0.070312,-0.3164062 0.082031,-0.375 0.1875,-0.75 0.2578125,-1.0429688 0.082031,0.140625 0.3046875,0.4101563 0.7265625,0.4101563 0.84375,0 1.78125,-0.9375 1.78125,-1.98046875 0,-0.82031255 -0.5625,-1.16015625 -1.0429688,-1.16015625 -0.4335937,0 -0.796875,0.2929687 -0.984375,0.4804687 -0.1171875,-0.3984375 -0.515625,-0.4804687 -0.7265625,-0.4804687 -0.2695312,0 -0.4335937,0.1757812 -0.5507812,0.3632812 -0.140625,0.23437505 -0.2460938,0.65625005 -0.2460938,0.70312505 0,0.0820312 0.09375,0.0820312 0.1171875,0.0820312 0.09375,0 0.1054688,-0.0117188 0.1523438,-0.19921875 0.1054687,-0.4101562 0.234375,-0.7617187 0.515625,-0.7617187 0.1757812,0 0.2226562,0.1523437 0.2226562,0.3398437 0,0.0820313 -0.011719,0.17578125 -0.023437,0.2109375 z m 1.3125,-3.09374995 c 0.4101562,-0.53906255 0.75,-0.64453125 0.9726562,-0.64453125 0.28125,0 0.515625,0.2109375 0.515625,0.6796875 0,0.28125 -0.1523437,0.99609375 -0.3632812,1.40625 -0.1757813,0.3398437 -0.515625,0.6679687 -0.8671875,0.6679687 -0.5039063,0 -0.6210938,-0.53906245 -0.6210938,-0.5976562 0,-0.0351563 0.011719,-0.0820313 0.011719,-0.10546875 z m 0,0"
         style="fill:#000000;fill-opacity:1;fill-rule:nonzero;stroke:none" />
    </g>
    <path
       id="path10"
       d="m 1.9102891,-0.52740625 c 0,-0.29296875 -0.234375,-0.52734375 -0.5273438,-0.52734375 -0.28125,0 -0.52734374,0.234375 -0.52734374,0.52734375 0,0.29296875 0.24609374,0.52734375 0.52734374,0.52734375 0.2929688,0 0.5273438,-0.234375 0.5273438,-0.52734375 z m 0,3.98437495 c 0,-0.2929687 -0.234375,-0.5273437 -0.5273438,-0.5273437 -0.28125,0 -0.52734374,0.234375 -0.52734374,0.5273437 0,0.2929688 0.24609374,0.5273438 0.52734374,0.5273438 0.2929688,0 0.5273438,-0.234375 0.5273438,-0.5273438 z m 0,3.9873047 c 0,-0.2929687 -0.234375,-0.5273437 -0.5273438,-0.5273437 -0.28125,0 -0.52734374,0.234375 -0.52734374,0.5273437 0,0.2929688 0.24609374,0.5273438 0.52734374,0.5273438 0.2929688,0 0.5273438,-0.234375 0.5273438,-0.5273438 z m 0,0"
       style="fill:#000000;fill-opacity:1;fill-rule:nonzero;stroke:none"
       aria-label=".&#10;.&#10;."
       transform="matrix(1.3333333,0,0,1.3333333,144.71467,190.28133)" />
    <path
       id="path11"
       d="M 10.56711,10.56711 H -10.56711 V -10.56711 H 10.56711 Z"
       style="fill:none;stroke:#000000;stroke-width:0.3985;stroke-linecap:butt;stroke-linejoin:miter;stroke-miterlimit:10;stroke-dasharray:none;stroke-opacity:1"
       transform="matrix(1.3333333,0,0,-1.3333333,146.56,153.11333)" />
    <path
       id="path12"
       d="M 10.56711,38.91393 H -10.56711 V 17.77968 h 21.13422 z"
       style="fill:none;stroke:#000000;stroke-width:0.3985;stroke-linecap:butt;stroke-linejoin:miter;stroke-miterlimit:10;stroke-dasharray:none;stroke-opacity:1"
       transform="matrix(1.3333333,0,0,-1.3333333,146.56,153.11333)" />
    <path
       id="path13"
       d="M 10.56711,67.26074 H -10.56711 V 46.1265 h 21.13422 z"
       style="fill:none;stroke:#000000;stroke-width:0.3985;stroke-linecap:butt;stroke-linejoin:miter;stroke-miterlimit:10;stroke-dasharray:none;stroke-opacity:1"
       transform="matrix(1.3333333,0,0,-1.3333333,146.56,153.11333)" />
    <path
       id="path14"
       d="M 10.56711,95.60754 H -10.56711 V 74.4733 h 21.13422 z"
       style="fill:none;stroke:#000000;stroke-width:0.3985;stroke-linecap:butt;stroke-linejoin:miter;stroke-miterlimit:10;stroke-dasharray:none;stroke-opacity:1"
       transform="matrix(1.3333333,0,0,-1.3333333,146.56,153.11333)" />
    <g
       id="g14"
       aria-label="pg&#10;2"
       transform="matrix(1.3333333,0,0,1.3333333,137.07067,14.84)">
      <path
         id="path15"
         d="m 0.44504687,1.2186328 c -0.0820313,0.3398438 -0.09375,0.4101563 -0.5390625,0.4101563 -0.1171875,0 -0.22265625,0 -0.22265625,0.1875 0,0.082031 0.046875,0.1171875 0.12890625,0.1171875 0.26953125,0 0.55078125,-0.035156 0.83203125,-0.035156 0.328125,0 0.66796878,0.035156 0.98437498,0.035156 0.058594,0 0.1875,0 0.1875,-0.1992188 0,-0.1054687 -0.1054687,-0.1054687 -0.2460937,-0.1054687 -0.4921875,0 -0.4921875,-0.070312 -0.4921875,-0.1640625 0,-0.1171875 0.421875,-1.74609379 0.4804687,-1.99218754 0.140625,0.29296875 0.4101563,0.6328125 0.9257813,0.6328125 1.1484375,0 2.4023437,-1.45312496 2.4023437,-2.91796876 0,-0.9375 -0.5742187,-1.59375 -1.3359375,-1.59375 -0.4921875,0 -0.9726562,0.3632813 -1.3007812,0.75 -0.09375,-0.5390625 -0.5273438,-0.75 -0.890625,-0.75 -0.45703128,0 -0.65625003,0.3867188 -0.73828128,0.5742188 -0.1875,0.3398437 -0.31640625,0.9375 -0.31640625,0.9609375 0,0.1054687 0.10546875,0.1054687 0.12890625,0.1054687 0.09375,0 0.10546875,-0.011719 0.1640625,-0.234375 0.1640625,-0.703125 0.36328125,-1.1835937 0.72656248,-1.1835937 0.1757813,0 0.3046875,0.082031 0.3046875,0.4570312 0,0.234375 -0.023437,0.3398438 -0.070312,0.5039063 z M 2.2028594,-3.1055859 c 0.070312,-0.2695313 0.3398437,-0.5507813 0.515625,-0.703125 0.3515625,-0.3046875 0.6328125,-0.375 0.8085937,-0.375 0.3984375,0 0.6328125,0.3515625 0.6328125,0.9375 0,0.5859375 -0.328125,1.734375 -0.5039062,2.109375 -0.3398438,0.70312496 -0.8203125,1.03124996 -1.1835938,1.03124996 -0.65625,0 -0.7851562,-0.83203125 -0.7851562,-0.890625 0,-0.0234375 0,-0.0351563 0.023437,-0.16406246 z m 7.4970703,-0.6445313 c 0.011719,-0.070312 0.035156,-0.1171875 0.035156,-0.1875 0,-0.1640625 -0.1171875,-0.2695312 -0.2929687,-0.2695312 -0.09375,0 -0.3632813,0.070312 -0.4101563,0.4335937 -0.1757812,-0.375 -0.5273437,-0.6328125 -0.9257812,-0.6328125 -1.1367188,0 -2.3671875,1.3945313 -2.3671875,2.8359375 0,0.98437501 0.609375,1.5703125125 1.3242187,1.5703125125 0.5859375,0 1.0546875,-0.4687500025 1.1601563,-0.5742187525 l 0.011719,0.0117188 c -0.2109375,0.87890625 -0.328125,1.2890625 -0.328125,1.3125 -0.046875,0.0820313 -0.3867187,1.07812504 -1.4414062,1.07812504 -0.1875,0 -0.515625,-0.011719 -0.796875,-0.1054688 0.3046875,-0.09375 0.4101562,-0.3515625 0.4101562,-0.515625 0,-0.1640625 -0.1054687,-0.35156249 -0.375,-0.35156249 -0.2226562,0 -0.5390625,0.17578129 -0.5390625,0.57421879 0,0.4101562 0.3632813,0.609375 1.3242188,0.609375 1.2421875,0 1.9570312,-0.7734375 2.109375,-1.37109379 z m -1.2890625,2.4726563 c -0.058594,0.2578125 -0.2929688,0.51562496 -0.5039063,0.70312496 -0.2109375,0.17578125 -0.5273437,0.3515625 -0.8085937,0.3515625 -0.5039063,0 -0.65625,-0.515625 -0.65625,-0.91406246 0,-0.4804688 0.2929687,-1.6523438 0.5625,-2.15625 0.2695312,-0.4921875 0.703125,-0.890625 1.1132812,-0.890625 0.65625,0 0.796875,0.8085937 0.796875,0.8554687 0,0.046875 -0.011719,0.1054688 -0.023437,0.1523438 z m 0,0"
         style="fill:#8c8cff;fill-opacity:1;fill-rule:nonzero;stroke:none" />
      <path
         id="path16"
         d="m 13.280008,0.22839844 h -0.234375 c -0.02344,0.15234375 -0.08203,0.5625 -0.175781,0.6328125 -0.05859,0.0351563 -0.597657,0.0351563 -0.691407,0.0351563 h -1.289062 c 0.738281,-0.64453125 0.984375,-0.84375 1.394531,-1.171875 0.515625,-0.41015625 0.996094,-0.84374994 0.996094,-1.49999994 0,-0.8437501 -0.738281,-1.3593751 -1.628906,-1.3593751 -0.867188,0 -1.453125,0.609375 -1.453125,1.2421876 0,0.3632812 0.304687,0.3984375 0.375,0.3984375 0.164062,0 0.375,-0.1171875 0.375,-0.375 0,-0.1289063 -0.05859,-0.3632814 -0.421875,-0.3632814 0.222656,-0.5039062 0.691406,-0.65625 1.019531,-0.65625 0.703125,0 1.066406,0.5507813 1.066406,1.1132813 0,0.609375 -0.433594,1.08984379 -0.65625,1.33593754 l -1.6875,1.66406246 c -0.07031,0.058594 -0.07031,0.070312 -0.07031,0.2695312 h 2.882812 z m 0,0"
         style="fill:#8c8cff;fill-opacity:1;fill-rule:nonzero;stroke:none" />
    </g>
    <path
       id="path17"
       d="m 1.9116172,-0.52740625 c 0,-0.29296875 -0.234375,-0.52734375 -0.5273438,-0.52734375 -0.28125,0 -0.52734371,0.234375 -0.52734371,0.52734375 0,0.29296875 0.24609371,0.52734375 0.52734371,0.52734375 0.2929688,0 0.5273438,-0.234375 0.5273438,-0.52734375 z m 0,3.98437495 c 0,-0.2929687 -0.234375,-0.5273437 -0.5273438,-0.5273437 -0.28125,0 -0.52734371,0.234375 -0.52734371,0.5273437 0,0.2929688 0.24609371,0.5273438 0.52734371,0.5273438 0.2929688,0 0.5273438,-0.234375 0.5273438,-0.5273438 z m 0,3.9873047 c 0,-0.2929687 -0.234375,-0.5273437 -0.5273438,-0.5273437 -0.28125,0 -0.52734371,0.234375 -0.52734371,0.5273437 0,0.2929688 0.24609371,0.5273438 0.52734371,0.5273438 0.2929688,0 0.5273438,-0.234375 0.5273438,-0.5273438 z m 0,0"
       style="fill:#000000;fill-opacity:1;fill-rule:nonzero;stroke:none"
       aria-label=".&#10;.&#10;."
       transform="matrix(1.3333333,0,0,1.3333333,99.361333,190.28133)" />
    <path
       id="path18"
       d="M -23.44896,10.56711 H -44.5832 v -21.13422 h 21.13424 z"
       style="fill:none;stroke:#000000;stroke-width:0.3985;stroke-linecap:butt;stroke-linejoin:miter;stroke-miterlimit:10;stroke-dasharray:none;stroke-opacity:1"
       transform="matrix(1.3333333,0,0,-1.3333333,146.56,153.11333)" />
    <path
       id="path19"
       d="M -23.44896,38.91393 H -44.5832 V 17.77968 h 21.13424 z"
       style="fill:none;stroke:#000000;stroke-width:0.3985;stroke-linecap:butt;stroke-linejoin:miter;stroke-miterlimit:10;stroke-dasharray:none;stroke-opacity:1"
       transform="matrix(1.3333333,0,0,-1.3333333,146.56,153.11333)" />
    <path
       id="path20"
       d="M -23.44896,67.26074 H -44.5832 V 46.1265 h 21.13424 z"
       style="fill:none;stroke:#000000;stroke-width:0.3985;stroke-linecap:butt;stroke-linejoin:miter;stroke-miterlimit:10;stroke-dasharray:none;stroke-opacity:1"
       transform="matrix(1.3333333,0,0,-1.3333333,146.56,153.11333)" />
    <path
       id="path21"
       d="M -23.44896,95.60754 H -44.5832 V 74.4733 h 21.13424 z"
       style="fill:none;stroke:#000000;stroke-width:0.3985;stroke-linecap:butt;stroke-linejoin:miter;stroke-miterlimit:10;stroke-dasharray:none;stroke-opacity:1"
       transform="matrix(1.3333333,0,0,-1.3333333,146.56,153.11333)" />
    <g
       id="g21"
       aria-label="pg&#10;1"
       transform="matrix(1.3333333,0,0,1.3333333,91.716,14.84)">
      <path
         id="path22"
         d="m 0.44444531,1.2186328 c -0.0820313,0.3398438 -0.09375,0.4101563 -0.5390625,0.4101563 -0.1171875,0 -0.22265625,0 -0.22265625,0.1875 0,0.082031 0.046875,0.1171875 0.12890625,0.1171875 0.26953125,0 0.55078125,-0.035156 0.83203125,-0.035156 0.328125,0 0.66796874,0.035156 0.98437504,0.035156 0.058594,0 0.1875,0 0.1875,-0.1992188 0,-0.1054687 -0.1054688,-0.1054687 -0.2460938,-0.1054687 -0.4921875,0 -0.4921875,-0.070312 -0.4921875,-0.1640625 0,-0.1171875 0.421875,-1.74609379 0.4804688,-1.99218754 0.140625,0.29296875 0.4101562,0.6328125 0.9257812,0.6328125 1.1484375,0 2.4023438,-1.45312496 2.4023438,-2.91796876 0,-0.9375 -0.5742188,-1.59375 -1.3359375,-1.59375 -0.4921875,0 -0.9726563,0.3632813 -1.3007813,0.75 -0.09375,-0.5390625 -0.5273437,-0.75 -0.890625,-0.75 -0.45703124,0 -0.65624999,0.3867188 -0.73828124,0.5742188 -0.1875,0.3398437 -0.31640625,0.9375 -0.31640625,0.9609375 0,0.1054687 0.10546875,0.1054687 0.12890625,0.1054687 0.09375,0 0.10546875,-0.011719 0.1640625,-0.234375 0.1640625,-0.703125 0.36328125,-1.1835937 0.72656254,-1.1835937 0.1757812,0 0.3046875,0.082031 0.3046875,0.4570312 0,0.234375 -0.023437,0.3398438 -0.070312,0.5039063 z M 2.2022578,-3.1055859 c 0.070312,-0.2695313 0.3398438,-0.5507813 0.515625,-0.703125 0.3515625,-0.3046875 0.6328125,-0.375 0.8085938,-0.375 0.3984375,0 0.6328125,0.3515625 0.6328125,0.9375 0,0.5859375 -0.328125,1.734375 -0.5039063,2.109375 -0.3398437,0.70312496 -0.8203125,1.03124996 -1.1835937,1.03124996 -0.65625,0 -0.7851563,-0.83203125 -0.7851563,-0.890625 0,-0.0234375 0,-0.0351563 0.023437,-0.16406246 z m 7.4970703,-0.6445313 c 0.011719,-0.070312 0.035156,-0.1171875 0.035156,-0.1875 0,-0.1640625 -0.1171875,-0.2695312 -0.2929688,-0.2695312 -0.09375,0 -0.3632812,0.070312 -0.4101562,0.4335937 -0.1757813,-0.375 -0.5273438,-0.6328125 -0.9257813,-0.6328125 -1.1367187,0 -2.3671875,1.3945313 -2.3671875,2.8359375 0,0.98437501 0.609375,1.5703125125 1.3242188,1.5703125125 0.5859375,0 1.0546875,-0.4687500025 1.1601562,-0.5742187525 l 0.011719,0.0117188 c -0.2109375,0.87890625 -0.328125,1.2890625 -0.328125,1.3125 -0.046875,0.0820313 -0.3867188,1.07812504 -1.4414063,1.07812504 -0.1875,0 -0.515625,-0.011719 -0.796875,-0.1054688 0.3046875,-0.09375 0.4101563,-0.3515625 0.4101563,-0.515625 0,-0.1640625 -0.1054688,-0.35156249 -0.375,-0.35156249 -0.2226563,0 -0.5390625,0.17578129 -0.5390625,0.57421879 0,0.4101562 0.3632812,0.609375 1.3242187,0.609375 1.2421875,0 1.9570313,-0.7734375 2.109375,-1.37109379 z m -1.2890625,2.4726563 c -0.058594,0.2578125 -0.2929687,0.51562496 -0.5039062,0.70312496 -0.2109375,0.17578125 -0.5273438,0.3515625 -0.8085938,0.3515625 -0.5039062,0 -0.65625,-0.515625 -0.65625,-0.91406246 0,-0.4804688 0.2929688,-1.6523438 0.5625,-2.15625 0.2695313,-0.4921875 0.703125,-0.890625 1.1132813,-0.890625 0.65625,0 0.796875,0.8085937 0.796875,0.8554687 0,0.046875 -0.011719,0.1054688 -0.023437,0.1523438 z m 0,0"
         style="fill:#8c8cff;fill-opacity:1;fill-rule:nonzero;stroke:none" />
      <path
         id="path23"
         d="m 12.095812,-2.9356641 c 0,-0.1875 -0.01172,-0.1992187 -0.210937,-0.1992187 -0.445313,0.4335937 -1.078125,0.4453125 -1.359375,0.4453125 v 0.2460937 c 0.164062,0 0.621094,0 1.007812,-0.1875 v 3.55078129 c 0,0.23437501 0,0.32812501 -0.691406,0.32812501 h -0.269531 v 0.2460937 c 0.128906,-0.011719 0.984375,-0.023437 1.242187,-0.023437 0.210938,0 1.089844,0.011719 1.242188,0.023437 V 1.2479297 h -0.257813 c -0.703125,0 -0.703125,-0.09375 -0.703125,-0.32812501 z m 0,0"
         style="fill:#8c8cff;fill-opacity:1;fill-rule:nonzero;stroke:none" />
    </g>
    <path
       id="path24"
       d="m 1.3828594,-1.1705859 c -0.3515625,0 -0.63281252,0.26953121 -0.63281252,0.63281246 0,0.36328125 0.28125002,0.6328125 0.63281252,0.6328125 0.3515625,0 0.6328125,-0.28125 0.6328125,-0.6328125 0,-0.36328125 -0.28125,-0.63281246 -0.6328125,-0.63281246 z m 4.1542969,0 c -0.3515625,0 -0.6328125,0.26953121 -0.6328125,0.63281246 0,0.36328125 0.28125,0.6328125 0.6328125,0.6328125 0.3515625,0 0.6328125,-0.28125 0.6328125,-0.6328125 0,-0.36328125 -0.28125,-0.63281246 -0.6328125,-0.63281246 z m 4.1542968,0 c -0.3515625,0 -0.6328125,0.26953121 -0.6328125,0.63281246 0,0.36328125 0.28125,0.6328125 0.6328125,0.6328125 0.3515629,0 0.6328129,-0.28125 0.6328129,-0.6328125 0,-0.36328125 -0.28125,-0.63281246 -0.6328129,-0.63281246 z m 0,0"
       style="fill:#000000;fill-opacity:1;fill-rule:nonzero;stroke:none"
       aria-label="..."
       transform="matrix(1.3333333,0,0,1.3333333,191.164,51.76)" />
    <path
       id="path25"
       d="m -63.67963,100.73193 h -42.7216 v -42.7216 h 42.7216 z"
       style="fill:none;stroke:#000000;stroke-width:0.3985;stroke-linecap:butt;stroke-linejoin:miter;stroke-miterlimit:10;stroke-dasharray:none;stroke-opacity:1"
       transform="matrix(1.3333333,0,0,-1.3333333,146.56,153.11333)" />
    <path
       id="path26"
       d="m 4.5234297,-4.2198047 c -0.234375,-0.4453125 -0.609375,-0.6679687 -1.1015625,-0.6679687 -0.4101563,0 -0.9257813,0.1992187 -1.59375,0.5976562 v -0.5507812 h -0.375 l -1.14843751,0.3515625 v 0.3164062 H 1.0078047 v 3.60937501 l -0.17578126,0.15234375 -0.52734375,0.046875 v 0.36328125 H 2.4843672 V -0.36433594 L 2.0038984,-0.41121094 1.8281172,-0.56355469 V -3.9033984 c 0.4453125,-0.2226563 0.8085937,-0.328125 1.1367187,-0.328125 0.5976563,0 0.8789063,0.328125 0.8789063,1.0195312 v 2.64843751 l -0.1640625,0.15234375 -0.4804688,0.046875 v 0.36328125 h 2.1210938 v -0.36328125 l -0.46875,-0.046875 -0.1757813,-0.15234375 V -3.9033984 c 0.421875,-0.2109375 0.8085938,-0.328125 1.125,-0.328125 0.609375,0 0.890625,0.328125 0.890625,1.0195312 v 2.64843751 l -0.1757812,0.15234375 -0.46875,0.046875 v 0.36328125 H 8.2148359 V -0.36433594 L 7.6874922,-0.41121094 7.5234297,-0.56355469 V -3.3760547 c 0,-0.984375 -0.5039063,-1.5117187 -1.2890625,-1.5117187 -0.3984375,0 -0.9609375,0.2226562 -1.7109375,0.6679687 z m 7.2041013,3.64453126 0.128906,0.57421875 h 1.40625 v -0.36328125 l -0.527343,-0.046875 -0.1875,-0.15234375 V -3.4580859 c 0,-1.0078125 -0.433594,-1.4296875 -1.476563,-1.4296875 -1.253906,0 -2.0156248,0.515625 -2.0156248,1.125 0,0.234375 0.082031,0.3046875 0.3046875,0.3046875 H 10.05175 v -0.8320313 c 0.269531,-0.1171875 0.503906,-0.1640625 0.761719,-0.1640625 0.714843,0 0.914062,0.328125 0.914062,1.1132813 v 0.3164062 c -1.9921873,0.4804688 -2.9062498,0.7851563 -2.9062498,1.8164063 0,0.74999996 0.4804688,1.27734371 1.2773438,1.27734371 0.46875,0 0.996094,-0.22265625 1.628906,-0.64453125 z m 0,-0.33984375 c -0.503906,0.28125 -0.902344,0.4453125 -1.230469,0.4453125 -0.5039058,0 -0.7968745,-0.328125 -0.7968745,-0.82031251 0,-0.7265625 0.6210935,-0.9960937 2.0273435,-1.3828125 z m 2.027344,0.9140625 h 2.179687 v -0.36328125 l -0.480468,-0.046875 -0.175782,-0.15234375 V -3.9033984 c 0.433594,-0.2226563 0.796875,-0.328125 1.125,-0.328125 0.738282,0 0.996094,0.2929687 0.996094,1.0195312 v 2.64843751 l -0.164062,0.15234375 -0.480469,0.046875 v 0.36328125 h 2.179687 V -0.36433594 L 18.3955,-0.41121094 18.231437,-0.56355469 V -3.3760547 c 0,-0.9960937 -0.480468,-1.5117187 -1.347656,-1.5117187 -0.421875,0 -0.9375,0.2226562 -1.605469,0.5976562 v -0.5507812 h -0.375 l -1.148437,0.3515625 v 0.3164062 H 14.458 v 3.60937501 l -0.175781,0.15234375 -0.527344,0.046875 z m 8.791992,-0.57421875 0.128906,0.57421875 h 1.40625 v -0.36328125 l -0.527343,-0.046875 -0.1875,-0.15234375 V -3.4580859 c 0,-1.0078125 -0.433594,-1.4296875 -1.476563,-1.4296875 -1.253906,0 -2.015625,0.515625 -2.015625,1.125 0,0.234375 0.08203,0.3046875 0.304688,0.3046875 h 0.691406 v -0.8320313 c 0.269531,-0.1171875 0.503906,-0.1640625 0.761719,-0.1640625 0.714843,0 0.914062,0.328125 0.914062,1.1132813 v 0.3164062 c -1.992187,0.4804688 -2.90625,0.7851563 -2.90625,1.8164063 0,0.74999996 0.480469,1.27734371 1.277344,1.27734371 0.46875,0 0.996094,-0.22265625 1.628906,-0.64453125 z m 0,-0.33984375 c -0.503906,0.28125 -0.902344,0.4453125 -1.230469,0.4453125 -0.503906,0 -0.796875,-0.328125 -0.796875,-0.82031251 0,-0.7265625 0.621094,-0.9960937 2.027344,-1.3828125 z m 5.402344,-3.70312501 c -0.386719,-0.1875 -0.75,-0.2695312 -1.125,-0.2695312 -1.183594,0 -1.933594,0.6679687 -1.933594,1.640625 0,0.75 0.46875,1.3359375 1.230469,1.5 -0.316406,0.3867187 -0.480469,0.6914062 -0.480469,0.94921871 0,0.1640625 0.04687,0.3046875 0.105469,0.4453125 -0.679688,0.1171875 -1.078125,0.59765625 -1.078125,1.2421875 0,0.79687499 0.65625,1.27734379 1.804687,1.27734379 0.75,0 1.441407,-0.2226563 1.96875,-0.65625 0.386719,-0.3164063 0.597657,-0.75000004 0.597657,-1.11328129 0,-0.73828125 -0.515625,-1.04296875 -1.6875,-1.23046875 l -0.960938,-0.140625 c -0.01172,-0.11718746 -0.02344,-0.18749996 -0.02344,-0.24609376 0,-0.1523437 0.04687,-0.3046875 0.117187,-0.4453125 h 0.164063 c 1.160156,0 1.910156,-0.6679687 1.910156,-1.5585937 0,-0.3398438 -0.09375,-0.6328125 -0.28125,-0.9257813 h 1.089844 v -0.46875 z m -1.230469,0.1171875 c 0.574219,0 0.972656,0.46875 0.972656,1.21875 0,0.75 -0.398437,1.2304688 -0.972656,1.2304688 -0.574219,0 -0.972656,-0.4804688 -0.972656,-1.2304688 0,-0.7617187 0.398437,-1.21875 0.972656,-1.21875 z m -0.398437,4.19531251 0.972656,0.1875 c 0.691406,0.12890625 1.007812,0.234375 1.007812,0.7734375 0,0.56249999 -0.597656,1.05468749 -1.476562,1.05468749 -0.820313,0 -1.359375,-0.4570312 -1.359375,-1.03124999 0,-0.4453125 0.304687,-0.80859375 0.855469,-0.984375 z m 7.623047,-0.75000001 c -0.574219,0.37500001 -1.066407,0.57421876 -1.570313,0.57421876 -0.996094,0 -1.664062,-0.74999996 -1.664062,-2.02734376 v -0.1171875 h 3.222656 c 0.01172,-0.1054687 0.01172,-0.1992187 0.01172,-0.3046875 0,-1.21875 -0.714844,-1.9570312 -1.792969,-1.9570312 -1.335938,0 -2.308594,1.0195312 -2.308594,2.53125 0,1.45312496 0.914063,2.44921871 2.226563,2.44921871 0.632812,0 1.277343,-0.19921875 1.875,-0.59765625 z m -0.890625,-1.9804687 h -2.296875 c 0.05859,-0.8554688 0.621093,-1.40625 1.265625,-1.40625 0.667968,0 1.03125,0.4335937 1.03125,1.2421875 z m 1.623046,3.03515621 h 2.390625 v -0.36328125 l -0.691406,-0.046875 -0.175781,-0.15234375 V -3.4229297 c 0.410156,-0.46875 0.761719,-0.7265625 1.089844,-0.7265625 0.210937,0 0.375,0.082031 0.503906,0.2460938 h 0.328125 v -0.8554688 c -0.210938,-0.09375 -0.398438,-0.1289062 -0.597656,-0.1289062 -0.08203,0 -0.175782,0 -0.257813,0.011719 -0.351562,0.2929688 -0.714844,0.609375 -1.066406,0.9726563 v -0.9375 h -0.375 l -1.148438,0.3515625 v 0.3164062 h 0.703125 v 3.60937501 l -0.175781,0.15234375 -0.527344,0.046875 z m 0,0"
       style="fill:#000000;fill-opacity:1;fill-rule:nonzero;stroke:none"
       aria-label="manager"
       transform="matrix(1.3333333,0,0,1.3333333,7.7226667,49.06)" />
    <path
       id="path27"
       d="m -63.48085,94.46706 v -0.392 h 18.11511"
       style="fill:none;stroke:#000000;stroke-width:0.59776;stroke-linecap:butt;stroke-linejoin:miter;stroke-miterlimit:10;stroke-dasharray:none;stroke-opacity:1"
       transform="matrix(1.3333333,0,0,-1.3333333,146.56,153.11333)" />
    <path
       id="path28"
       d="M -1.37483,1.83311 C -1.26025,1.14569 0,0.11455 0.34369,0 0,-0.11455 -1.26025,-1.14569 -1.37483,-1.83311"
       style="fill:none;stroke:#000000;stroke-width:0.4782;stroke-linecap:round;stroke-linejoin:round;stroke-miterlimit:10;stroke-dasharray:none;stroke-opacity:1"
       transform="matrix(1.3333333,0,0,-1.3333333,86.072347,27.67992)" />
    <path
       id="path29"
       d="M -63.47961,91.81882 V 91.25621 H -11.3488"
       style="fill:none;stroke:#000000;stroke-width:0.59776;stroke-linecap:butt;stroke-linejoin:miter;stroke-miterlimit:10;stroke-dasharray:none;stroke-opacity:1"
       transform="matrix(1.3333333,0,0,-1.3333333,146.56,153.11333)" />
    <path
       id="path30"
       d="M -1.37483,1.83311 C -1.26025,1.14569 0,0.11455 0.34369,0 0,-0.11455 -1.26025,-1.14569 -1.37483,-1.83311"
       style="fill:none;stroke:#000000;stroke-width:0.4782;stroke-linecap:round;stroke-linejoin:round;stroke-miterlimit:10;stroke-dasharray:none;stroke-opacity:1"
       transform="matrix(1.3333333,0,0,-1.3333333,131.42827,31.438387)" />
    <path
       id="path31"
       d="M -63.4821,88.08138 H 37.98373"
       style="fill:none;stroke:#000000;stroke-width:0.59776;stroke-linecap:butt;stroke-linejoin:miter;stroke-miterlimit:10;stroke-dasharray:none;stroke-opacity:1"
       transform="matrix(1.3333333,0,0,-1.3333333,146.56,153.11333)" />
    <path
       id="path32"
       d="M -1.37483,1.83311 C -1.26025,1.14569 0,0.11455 0.34369,0 0,-0.11455 -1.26025,-1.14569 -1.37483,-1.83311"
       style="fill:none;stroke:#000000;stroke-width:0.4782;stroke-linecap:round;stroke-linejoin:round;stroke-miterlimit:10;stroke-dasharray:none;stroke-opacity:1"
       transform="matrix(1.3333333,0,0,-1.3333333,197.20497,35.671493)" />
    <path
       id="path33"
       d="m 0,11.47588 v 5.39505"
       style="fill:none;stroke:#000000;stroke-width:0.79701;stroke-linecap:butt;stroke-linejoin:miter;stroke-miterlimit:10;stroke-dasharray:none;stroke-opacity:1"
       transform="matrix(1.3333333,0,0,-1.3333333,146.56,153.11333)" />
    <path
       id="path34"
       d="M -1.55415,2.0722 C -1.42464,1.29512 0,0.1295 0.38852,0 0,-0.1295 -1.42464,-1.29512 -1.55415,-2.0722"
       style="fill:none;stroke:#000000;stroke-width:0.6376;stroke-linecap:round;stroke-linejoin:round;stroke-miterlimit:10;stroke-dasharray:none;stroke-opacity:1"
       transform="matrix(0,1.3333333,1.3333333,0,146.56,137.81216)" />
    <path
       id="path35"
       d="M -1.55415,2.0722 C -1.42464,1.29512 0,0.1295 0.38852,0 0,-0.1295 -1.42464,-1.29512 -1.55415,-2.0722"
       style="fill:none;stroke:#000000;stroke-width:0.6376;stroke-linecap:round;stroke-linejoin:round;stroke-miterlimit:10;stroke-dasharray:none;stroke-opacity:1"
       transform="matrix(0,-1.3333333,-1.3333333,0,146.56,130.61876)" />
    <path
       id="path36"
       d="m 0,39.82268 v 5.39505"
       style="fill:none;stroke:#000000;stroke-width:0.79701;stroke-linecap:butt;stroke-linejoin:miter;stroke-miterlimit:10;stroke-dasharray:none;stroke-opacity:1"
       transform="matrix(1.3333333,0,0,-1.3333333,146.56,153.11333)" />
    <path
       id="path37"
       d="M -1.55415,2.0722 C -1.42464,1.29512 0,0.1295 0.38852,0 0,-0.1295 -1.42464,-1.29512 -1.55415,-2.0722"
       style="fill:none;stroke:#000000;stroke-width:0.6376;stroke-linecap:round;stroke-linejoin:round;stroke-miterlimit:10;stroke-dasharray:none;stroke-opacity:1"
       transform="matrix(0,1.3333333,1.3333333,0,146.56,100.01643)" />
    <path
       id="path38"
       d="M -1.55415,2.0722 C -1.42464,1.29512 0,0.1295 0.38852,0 0,-0.1295 -1.42464,-1.29512 -1.55415,-2.0722"
       style="fill:none;stroke:#000000;stroke-width:0.6376;stroke-linecap:round;stroke-linejoin:round;stroke-miterlimit:10;stroke-dasharray:none;stroke-opacity:1"
       transform="matrix(0,-1.3333333,-1.3333333,0,146.56,92.823027)" />
    <path
       id="path39"
       d="m 0,68.1695 v 5.39504"
       style="fill:none;stroke:#000000;stroke-width:0.79701;stroke-linecap:butt;stroke-linejoin:miter;stroke-miterlimit:10;stroke-dasharray:none;stroke-opacity:1"
       transform="matrix(1.3333333,0,0,-1.3333333,146.56,153.11333)" />
    <path
       id="path40"
       d="M -1.55415,2.0722 C -1.42464,1.29512 0,0.1295 0.38852,0 0,-0.1295 -1.42464,-1.29512 -1.55415,-2.0722"
       style="fill:none;stroke:#000000;stroke-width:0.6376;stroke-linecap:round;stroke-linejoin:round;stroke-miterlimit:10;stroke-dasharray:none;stroke-opacity:1"
       transform="matrix(0,1.3333333,1.3333333,0,146.56,62.220667)" />
    <path
       id="path41"
       d="M -1.55415,2.0722 C -1.42464,1.29512 0,0.1295 0.38852,0 0,-0.1295 -1.42464,-1.29512 -1.55415,-2.0722"
       style="fill:none;stroke:#000000;stroke-width:0.6376;stroke-linecap:round;stroke-linejoin:round;stroke-miterlimit:10;stroke-dasharray:none;stroke-opacity:1"
       transform="matrix(0,-1.3333333,-1.3333333,0,146.56,55.02728)" />
    <path
       id="path42"
       d="m 0,-11.47588 v -5.38865"
       style="fill:none;stroke:#000000;stroke-width:0.79701;stroke-linecap:butt;stroke-linejoin:miter;stroke-miterlimit:10;stroke-dasharray:none;stroke-opacity:1"
       transform="matrix(1.3333333,0,0,-1.3333333,146.56,153.11333)" />
    <path
       id="path43"
       d="M -1.55415,2.0722 C -1.42464,1.29512 0,0.1295 0.38852,0 0,-0.1295 -1.42464,-1.29512 -1.55415,-2.0722"
       style="fill:none;stroke:#000000;stroke-width:0.6376;stroke-linecap:round;stroke-linejoin:round;stroke-miterlimit:10;stroke-dasharray:none;stroke-opacity:1"
       transform="matrix(0,-1.3333333,-1.3333333,0,146.56,168.41451)" />
    <path
       id="path44"
       d="M -1.55415,2.0722 C -1.42464,1.29512 0,0.1295 0.38852,0 0,-0.1295 -1.42464,-1.29512 -1.55415,-2.0722"
       style="fill:none;stroke:#000000;stroke-width:0.6376;stroke-linecap:round;stroke-linejoin:round;stroke-miterlimit:10;stroke-dasharray:none;stroke-opacity:1"
       transform="matrix(0,1.3333333,1.3333333,0,146.56,175.59937)" />
    <path
       id="path45"
       d="m -34.01608,11.47588 v 5.39505"
       style="fill:none;stroke:#000000;stroke-width:0.79701;stroke-linecap:butt;stroke-linejoin:miter;stroke-miterlimit:10;stroke-dasharray:none;stroke-opacity:1"
       transform="matrix(1.3333333,0,0,-1.3333333,146.56,153.11333)" />
    <path
       id="path46"
       d="M -1.55415,2.0722 C -1.42464,1.29512 0,0.1295 0.38852,0 0,-0.1295 -1.42464,-1.29512 -1.55415,-2.0722"
       style="fill:none;stroke:#000000;stroke-width:0.6376;stroke-linecap:round;stroke-linejoin:round;stroke-miterlimit:10;stroke-dasharray:none;stroke-opacity:1"
       transform="matrix(0,1.3333333,1.3333333,0,101.20523,137.81216)" />
    <path
       id="path47"
       d="M -1.55415,2.0722 C -1.42464,1.29512 0,0.1295 0.38852,0 0,-0.1295 -1.42464,-1.29512 -1.55415,-2.0722"
       style="fill:none;stroke:#000000;stroke-width:0.6376;stroke-linecap:round;stroke-linejoin:round;stroke-miterlimit:10;stroke-dasharray:none;stroke-opacity:1"
       transform="matrix(0,-1.3333333,-1.3333333,0,101.20523,130.61876)" />
    <path
       id="path48"
       d="m -34.01608,39.82268 v 5.39505"
       style="fill:none;stroke:#000000;stroke-width:0.79701;stroke-linecap:butt;stroke-linejoin:miter;stroke-miterlimit:10;stroke-dasharray:none;stroke-opacity:1"
       transform="matrix(1.3333333,0,0,-1.3333333,146.56,153.11333)" />
    <path
       id="path49"
       d="M -1.55415,2.0722 C -1.42464,1.29512 0,0.1295 0.38852,0 0,-0.1295 -1.42464,-1.29512 -1.55415,-2.0722"
       style="fill:none;stroke:#000000;stroke-width:0.6376;stroke-linecap:round;stroke-linejoin:round;stroke-miterlimit:10;stroke-dasharray:none;stroke-opacity:1"
       transform="matrix(0,1.3333333,1.3333333,0,101.20523,100.01643)" />
    <path
       id="path50"
       d="M -1.55415,2.0722 C -1.42464,1.29512 0,0.1295 0.38852,0 0,-0.1295 -1.42464,-1.29512 -1.55415,-2.0722"
       style="fill:none;stroke:#000000;stroke-width:0.6376;stroke-linecap:round;stroke-linejoin:round;stroke-miterlimit:10;stroke-dasharray:none;stroke-opacity:1"
       transform="matrix(0,-1.3333333,-1.3333333,0,101.20523,92.823027)" />
    <path
       id="path51"
       d="m -34.01608,68.1695 v 5.39504"
       style="fill:none;stroke:#000000;stroke-width:0.79701;stroke-linecap:butt;stroke-linejoin:miter;stroke-miterlimit:10;stroke-dasharray:none;stroke-opacity:1"
       transform="matrix(1.3333333,0,0,-1.3333333,146.56,153.11333)" />
    <path
       id="path52"
       d="M -1.55415,2.0722 C -1.42464,1.29512 0,0.1295 0.38852,0 0,-0.1295 -1.42464,-1.29512 -1.55415,-2.0722"
       style="fill:none;stroke:#000000;stroke-width:0.6376;stroke-linecap:round;stroke-linejoin:round;stroke-miterlimit:10;stroke-dasharray:none;stroke-opacity:1"
       transform="matrix(0,1.3333333,1.3333333,0,101.20523,62.220667)" />
    <path
       id="path53"
       d="M -1.55415,2.0722 C -1.42464,1.29512 0,0.1295 0.38852,0 0,-0.1295 -1.42464,-1.29512 -1.55415,-2.0722"
       style="fill:none;stroke:#000000;stroke-width:0.6376;stroke-linecap:round;stroke-linejoin:round;stroke-miterlimit:10;stroke-dasharray:none;stroke-opacity:1"
       transform="matrix(0,-1.3333333,-1.3333333,0,101.20523,55.02728)" />
    <path
       id="path54"
       d="m -34.01608,-11.47588 v -5.38865"
       style="fill:none;stroke:#000000;stroke-width:0.79701;stroke-linecap:butt;stroke-linejoin:miter;stroke-miterlimit:10;stroke-dasharray:none;stroke-opacity:1"
       transform="matrix(1.3333333,0,0,-1.3333333,146.56,153.11333)" />
    <path
       id="path55"
       d="M -1.55415,2.0722 C -1.42464,1.29512 0,0.1295 0.38852,0 0,-0.1295 -1.42464,-1.29512 -1.55415,-2.0722"
       style="fill:none;stroke:#000000;stroke-width:0.6376;stroke-linecap:round;stroke-linejoin:round;stroke-miterlimit:10;stroke-dasharray:none;stroke-opacity:1"
       transform="matrix(0,-1.3333333,-1.3333333,0,101.20523,168.41451)" />
    <path
       id="path56"
       d="M -1.55415,2.0722 C -1.42464,1.29512 0,0.1295 0.38852,0 0,-0.1295 -1.42464,-1.29512 -1.55415,-2.0722"
       style="fill:none;stroke:#000000;stroke-width:0.6376;stroke-linecap:round;stroke-linejoin:round;stroke-miterlimit:10;stroke-dasharray:none;stroke-opacity:1"
       transform="matrix(0,1.3333333,1.3333333,0,101.20523,175.59937)" />
    <path
       id="path57"
       d="M -11.3515,0 H -22.66507"
       style="fill:none;stroke:#000000;stroke-width:0.59776;stroke-linecap:butt;stroke-linejoin:miter;stroke-miterlimit:10;stroke-dasharray:none;stroke-opacity:1"
       transform="matrix(1.3333333,0,0,-1.3333333,146.56,153.11333)" />
    <path
       id="path58"
       d="M -1.37483,1.83311 C -1.26025,1.14569 0,0.11455 0.34369,0 0,-0.11455 -1.26025,-1.14569 -1.37483,-1.83311"
       style="fill:none;stroke:#000000;stroke-width:0.4782;stroke-linecap:round;stroke-linejoin:round;stroke-miterlimit:10;stroke-dasharray:none;stroke-opacity:1"
       transform="matrix(1.3333333,0,0,-1.3333333,131.42467,153.11333)" />
    <path
       id="path59"
       d="M -1.37483,1.83311 C -1.26025,1.14569 0,0.11455 0.34369,0 0,-0.11455 -1.26025,-1.14569 -1.37483,-1.83311"
       style="fill:none;stroke:#000000;stroke-width:0.4782;stroke-linecap:round;stroke-linejoin:round;stroke-miterlimit:10;stroke-dasharray:none;stroke-opacity:1"
       transform="matrix(-1.3333333,0,0,1.3333333,116.33991,153.11333)" />
    <path
       id="path60"
       d="M -11.3515,28.3468 H -22.66507"
       style="fill:none;stroke:#000000;stroke-width:0.59776;stroke-linecap:butt;stroke-linejoin:miter;stroke-miterlimit:10;stroke-dasharray:none;stroke-opacity:1"
       transform="matrix(1.3333333,0,0,-1.3333333,146.56,153.11333)" />
    <path
       id="path61"
       d="M -1.37483,1.83311 C -1.26025,1.14569 0,0.11455 0.34369,0 0,-0.11455 -1.26025,-1.14569 -1.37483,-1.83311"
       style="fill:none;stroke:#000000;stroke-width:0.4782;stroke-linecap:round;stroke-linejoin:round;stroke-miterlimit:10;stroke-dasharray:none;stroke-opacity:1"
       transform="matrix(1.3333333,0,0,-1.3333333,131.42467,115.3176)" />
    <path
       id="path62"
       d="M -1.37483,1.83311 C -1.26025,1.14569 0,0.11455 0.34369,0 0,-0.11455 -1.26025,-1.14569 -1.37483,-1.83311"
       style="fill:none;stroke:#000000;stroke-width:0.4782;stroke-linecap:round;stroke-linejoin:round;stroke-miterlimit:10;stroke-dasharray:none;stroke-opacity:1"
       transform="matrix(-1.3333333,0,0,1.3333333,116.33991,115.3176)" />
    <path
       id="path63"
       d="M -11.3515,56.69362 H -22.66507"
       style="fill:none;stroke:#000000;stroke-width:0.59776;stroke-linecap:butt;stroke-linejoin:miter;stroke-miterlimit:10;stroke-dasharray:none;stroke-opacity:1"
       transform="matrix(1.3333333,0,0,-1.3333333,146.56,153.11333)" />
    <path
       id="path64"
       d="M -1.37483,1.83311 C -1.26025,1.14569 0,0.11455 0.34369,0 0,-0.11455 -1.26025,-1.14569 -1.37483,-1.83311"
       style="fill:none;stroke:#000000;stroke-width:0.4782;stroke-linecap:round;stroke-linejoin:round;stroke-miterlimit:10;stroke-dasharray:none;stroke-opacity:1"
       transform="matrix(1.3333333,0,0,-1.3333333,131.42467,77.52184)" />
    <path
       id="path65"
       d="M -1.37483,1.83311 C -1.26025,1.14569 0,0.11455 0.34369,0 0,-0.11455 -1.26025,-1.14569 -1.37483,-1.83311"
       style="fill:none;stroke:#000000;stroke-width:0.4782;stroke-linecap:round;stroke-linejoin:round;stroke-miterlimit:10;stroke-dasharray:none;stroke-opacity:1"
       transform="matrix(-1.3333333,0,0,1.3333333,116.33991,77.52184)" />
    <path
       id="path66"
       d="M -11.3515,85.04042 H -22.66507"
       style="fill:none;stroke:#000000;stroke-width:0.59776;stroke-linecap:butt;stroke-linejoin:miter;stroke-miterlimit:10;stroke-dasharray:none;stroke-opacity:1"
       transform="matrix(1.3333333,0,0,-1.3333333,146.56,153.11333)" />
    <path
       id="path67"
       d="M -1.37483,1.83311 C -1.26025,1.14569 0,0.11455 0.34369,0 0,-0.11455 -1.26025,-1.14569 -1.37483,-1.83311"
       style="fill:none;stroke:#000000;stroke-width:0.4782;stroke-linecap:round;stroke-linejoin:round;stroke-miterlimit:10;stroke-dasharray:none;stroke-opacity:1"
       transform="matrix(1.3333333,0,0,-1.3333333,131.42467,39.726107)" />
    <path
       id="path68"
       d="M -1.37483,1.83311 C -1.26025,1.14569 0,0.11455 0.34369,0 0,-0.11455 -1.26025,-1.14569 -1.37483,-1.83311"
       style="fill:none;stroke:#000000;stroke-width:0.4782;stroke-linecap:round;stroke-linejoin:round;stroke-miterlimit:10;stroke-dasharray:none;stroke-opacity:1"
       transform="matrix(-1.3333333,0,0,1.3333333,116.33991,39.726107)" />
    <path
       id="path69"
       d="m 17.00824,42.52022 h 33.5578"
       style="fill:none;stroke:#000000;stroke-width:0.3985;stroke-linecap:butt;stroke-linejoin:miter;stroke-miterlimit:10;stroke-dasharray:2.98883, 2.98883;stroke-dashoffset:0;stroke-opacity:1"
       transform="matrix(1.3333333,0,0,-1.3333333,146.56,153.11333)" />
    <path
       id="path70"
       d="M -1.19551,1.59401 C -1.09587,0.99626 0,0.09961 0.29886,0 0,-0.09961 -1.09587,-0.99626 -1.19551,-1.59401"
       style="fill:none;stroke:#000000;stroke-width:0.31879;stroke-linecap:round;stroke-linejoin:round;stroke-miterlimit:10;stroke-dasharray:none;stroke-opacity:1"
       transform="matrix(1.3333333,0,0,-1.3333333,213.98139,96.419707)" />
    <path
       id="path71"
       d="m 4.5243281,-4.2200859 c -0.234375,-0.4453125 -0.609375,-0.6679688 -1.1015625,-0.6679688 -0.4101562,0 -0.9257812,0.1992188 -1.59375,0.5976563 v -0.5507813 h -0.375 l -1.14843748,0.3515625 v 0.3164063 H 1.0087031 v 3.60937496 l -0.17578123,0.15234375 -0.52734375,0.046875 v 0.36328125 H 2.4852656 V -0.36461719 L 2.0047969,-0.41149219 1.8290156,-0.56383594 V -3.9036797 c 0.4453125,-0.2226562 0.8085938,-0.328125 1.1367188,-0.328125 0.5976562,0 0.8789062,0.328125 0.8789062,1.0195313 v 2.64843746 l -0.1640625,0.15234375 -0.4804687,0.046875 v 0.36328125 h 2.1210937 v -0.36328125 l -0.46875,-0.046875 -0.1757812,-0.15234375 V -3.9036797 c 0.421875,-0.2109375 0.8085937,-0.328125 1.125,-0.328125 0.609375,0 0.890625,0.328125 0.890625,1.0195313 v 2.64843746 l -0.1757813,0.15234375 -0.46875,0.046875 v 0.36328125 H 8.2157344 V -0.36461719 L 7.6883906,-0.41149219 7.5243281,-0.56383594 V -3.3763359 c 0,-0.984375 -0.5039062,-1.5117188 -1.2890625,-1.5117188 -0.3984375,0 -0.9609375,0.2226563 -1.7109375,0.6679688 z m 6.2900389,-0.6679688 c -1.3476561,0 -2.3203123,0.9960938 -2.3203123,2.484375 0,1.47656251 0.984375,2.49609376 2.3203123,2.49609376 1.335938,0 2.320313,-1.01953125 2.320313,-2.49609376 0,-1.4765625 -0.984375,-2.484375 -2.320313,-2.484375 z m 0,0.421875 c 0.808594,0 1.382813,0.7734375 1.382813,2.0625 0,1.3007813 -0.574219,2.06250001 -1.382813,2.06250001 -0.796875,0 -1.3828123,-0.77343751 -1.3828123,-2.06250001 0,-1.2890625 0.5742183,-2.0625 1.3828123,-2.0625 z m 2.988281,4.46484376 h 2.390625 v -0.36328125 l -0.691406,-0.046875 -0.175781,-0.15234375 V -3.4232109 c 0.410156,-0.46875 0.761719,-0.7265625 1.089844,-0.7265625 0.210937,0 0.375,0.082031 0.503906,0.2460937 h 0.328125 v -0.8554687 c -0.210938,-0.09375 -0.398438,-0.1289063 -0.597656,-0.1289063 -0.08203,0 -0.175782,0 -0.257813,0.011719 -0.351562,0.2929687 -0.714844,0.609375 -1.066406,0.9726562 v -0.9375 h -0.375 l -1.148438,0.3515625 v 0.3164063 h 0.703125 v 3.60937496 l -0.175781,0.15234375 -0.527344,0.046875 z m 7.965821,-1.05468746 c -0.574219,0.37499996 -1.066407,0.57421871 -1.570313,0.57421871 -0.996094,0 -1.664062,-0.75000001 -1.664062,-2.02734371 v -0.1171875 h 3.222656 c 0.01172,-0.1054688 0.01172,-0.1992188 0.01172,-0.3046875 0,-1.21875 -0.714844,-1.9570313 -1.792969,-1.9570313 -1.335938,0 -2.308594,1.0195313 -2.308594,2.53125 0,1.45312501 0.914063,2.44921876 2.226563,2.44921876 0.632812,0 1.277343,-0.19921875 1.875,-0.59765625 z m -0.890625,-1.9804688 h -2.296875 c 0.05859,-0.8554687 0.621093,-1.40625 1.265625,-1.40625 0.667968,0 1.03125,0.4335938 1.03125,1.2421875 z m 0,0"
       style="fill:#000000;fill-opacity:1;fill-rule:nonzero;stroke:none"
       aria-label="more"
       transform="matrix(1.3333333,0,0,1.3333333,177.116,107.576)" />
    <path
       id="path72"
       d="m 0.44417187,1.2184687 c -0.0820313,0.3398438 -0.09375,0.4101563 -0.5390625,0.4101563 -0.1171875,0 -0.22265625,0 -0.22265625,0.1875 0,0.082031 0.046875,0.1171875 0.12890625,0.1171875 0.26953125,0 0.55078125,-0.035156 0.83203125,-0.035156 0.328125,0 0.66796878,0.035156 0.98437498,0.035156 0.058594,0 0.1875,0 0.1875,-0.1992188 0,-0.1054687 -0.1054687,-0.1054687 -0.2460937,-0.1054687 -0.4921875,0 -0.4921875,-0.070312 -0.4921875,-0.1640625 0,-0.1171875 0.421875,-1.74609375 0.4804687,-1.9921875 0.140625,0.29296875 0.4101563,0.6328125 0.9257813,0.6328125 1.1484375,0 2.4023437,-1.453125 2.4023437,-2.9179688 0,-0.9375 -0.5742187,-1.59375 -1.3359375,-1.59375 -0.4921875,0 -0.9726562,0.3632813 -1.3007812,0.75 -0.09375,-0.5390625 -0.5273438,-0.75 -0.890625,-0.75 -0.45703128,0 -0.65625003,0.3867188 -0.73828128,0.5742188 -0.1875,0.3398437 -0.31640625,0.9375 -0.31640625,0.9609375 0,0.1054687 0.10546875,0.1054687 0.12890625,0.1054687 0.09375,0 0.10546875,-0.011719 0.1640625,-0.234375 0.1640625,-0.703125 0.36328125,-1.1835937 0.72656248,-1.1835937 0.1757813,0 0.3046875,0.082031 0.3046875,0.4570312 0,0.234375 -0.023437,0.3398438 -0.070312,0.5039063 z M 2.2019844,-3.10575 c 0.070312,-0.2695313 0.3398437,-0.5507813 0.515625,-0.703125 0.3515625,-0.3046875 0.6328125,-0.375 0.8085937,-0.375 0.3984375,0 0.6328125,0.3515625 0.6328125,0.9375 0,0.5859375 -0.328125,1.734375 -0.5039062,2.109375 -0.3398438,0.703125 -0.8203125,1.03125 -1.1835938,1.03125 -0.65625,0 -0.7851562,-0.83203125 -0.7851562,-0.890625 0,-0.0234375 0,-0.0351563 0.023437,-0.1640625 z m 7.4970703,-0.6445313 c 0.011719,-0.070312 0.035156,-0.1171875 0.035156,-0.1875 0,-0.1640625 -0.1171875,-0.2695312 -0.2929687,-0.2695312 -0.09375,0 -0.3632813,0.070312 -0.4101563,0.4335937 -0.1757812,-0.375 -0.5273437,-0.6328125 -0.9257812,-0.6328125 -1.1367188,0 -2.3671875,1.3945313 -2.3671875,2.8359375 0,0.98437505 0.609375,1.57031255 1.3242187,1.57031255 0.5859375,0 1.0546875,-0.46875 1.1601563,-0.57421875 l 0.011719,0.0117188 C 8.0232734,0.316125 7.9060859,0.72628125 7.9060859,0.74971875 7.8592109,0.83175 7.5193672,1.8278437 6.4646797,1.8278437 c -0.1875,0 -0.515625,-0.011719 -0.796875,-0.1054687 0.3046875,-0.09375 0.4101562,-0.3515625 0.4101562,-0.515625 0,-0.1640625 -0.1054687,-0.3515625 -0.375,-0.3515625 -0.2226562,0 -0.5390625,0.1757812 -0.5390625,0.5742187 0,0.4101563 0.3632813,0.609375 1.3242188,0.609375 1.2421875,0 1.9570312,-0.7734375 2.109375,-1.3710937 z M 8.4099922,-1.277625 C 8.3513984,-1.0198125 8.1170234,-0.762 7.9060859,-0.5745 c -0.2109375,0.17578125 -0.5273437,0.3515625 -0.8085937,0.3515625 -0.5039063,0 -0.65625,-0.515625 -0.65625,-0.9140625 0,-0.4804688 0.2929687,-1.6523438 0.5625,-2.15625 0.2695312,-0.4921875 0.703125,-0.890625 1.1132812,-0.890625 0.65625,0 0.796875,0.8085937 0.796875,0.8554687 0,0.046875 -0.011719,0.1054688 -0.023437,0.1523438 z m 0,0"
       style="fill:#8c8cff;fill-opacity:1;fill-rule:nonzero;stroke:none"
       aria-label="pg"
       transform="matrix(1.3333333,0,0,1.3333333,182.50933,123.516)" />
    <path
       id="path73"
       d="M 3.4208047,-4.6760625 C 3.0926797,-4.8166875 2.6942422,-4.887 2.2606484,-4.887 c -1.1367187,0 -1.75781246,0.515625 -1.75781246,1.3945312 0,0.6679688 0.43359375,0.984375 1.27734376,1.359375 0.65625,0.3046875 1.0195312,0.4804688 1.0195312,0.9960938 0,0.46875 -0.3632812,0.80859375 -0.9375,0.80859375 -0.2929687,0 -0.5625,-0.0820313 -0.84375,-0.234375 L 0.90127344,-1.41825 H 0.42080469 v 1.30078125 c 0.33984375,0.12890625 0.78515621,0.2109375 1.28906251,0.2109375 1.1835937,0 1.8632812,-0.57421875 1.8632812,-1.50000005 0,-0.3632812 -0.140625,-0.6679687 -0.375,-0.8554687 -0.328125,-0.2695313 -0.703125,-0.4101563 -1.0546875,-0.5742188 -0.5625,-0.2695312 -0.84375,-0.4804687 -0.84375,-0.9140625 0,-0.4453125 0.2929688,-0.7148437 0.8203125,-0.7148437 0.234375,0 0.4804688,0.070312 0.7382813,0.2109375 l 0.082031,0.703125 h 0.4804688 z m 0,0"
       style="fill:#000000;fill-opacity:1;fill-rule:nonzero;stroke:none"
       aria-label="s"
       transform="matrix(1.3333333,0,0,1.3333333,196.00533,123.516)" />
    <path
       id="path74"
       d="M -62.36288,0 V -56.23534"
       style="fill:none;stroke:#000000;stroke-width:0.3985;stroke-linecap:butt;stroke-linejoin:miter;stroke-miterlimit:10;stroke-dasharray:2.98883, 2.98883;stroke-dashoffset:0;stroke-opacity:1"
       transform="matrix(1.3333333,0,0,-1.3333333,146.56,153.11333)" />
    <path
       id="path75"
       d="M -1.19551,1.59401 C -1.09587,0.99626 0,0.09961 0.29886,0 0,-0.09961 -1.09587,-0.99626 -1.19551,-1.59401"
       style="fill:none;stroke:#000000;stroke-width:0.31879;stroke-linecap:round;stroke-linejoin:round;stroke-miterlimit:10;stroke-dasharray:none;stroke-opacity:1"
       transform="matrix(0,1.3333333,1.3333333,0,63.409493,228.09379)" />
    <path
       id="path76"
       d="M 0.28144531,-4.765625e-4 H 2.6134766 V -0.36375781 L 2.0392578,-0.41063281 1.8634766,-0.56297656 V -7.3364141 h -0.375 l -1.21875004,0.3632813 v 0.3046875 H 1.0314453 v 6.10546874 l -0.16406249,0.15234375 -0.5859375,0.046875 z M 6.2785156,-0.57469531 6.4074219,-4.765625e-4 h 1.40625 V -0.36375781 l -0.5273438,-0.046875 -0.1875,-0.15234375 V -3.4575078 c 0,-1.0078125 -0.4335937,-1.4296875 -1.4765625,-1.4296875 -1.2539062,0 -2.015625,0.515625 -2.015625,1.125 0,0.234375 0.082031,0.3046875 0.3046875,0.3046875 h 0.6914063 v -0.8320313 c 0.2695312,-0.1171875 0.5039062,-0.1640625 0.7617187,-0.1640625 0.7148438,0 0.9140625,0.328125 0.9140625,1.1132813 v 0.3164062 c -1.9921875,0.4804688 -2.90625,0.7851563 -2.90625,1.8164063 0,0.74999999 0.4804688,1.27734374 1.2773438,1.27734374 0.46875,0 0.9960937,-0.22265625 1.6289062,-0.64453125 z m 0,-0.33984375 c -0.5039062,0.28125 -0.9023437,0.4453125 -1.2304687,0.4453125 -0.5039063,0 -0.796875,-0.328125 -0.796875,-0.82031254 0,-0.7265625 0.6210937,-0.9960937 2.0273437,-1.3828125 z M 8.3058594,-4.765625e-4 H 10.696484 V -0.36375781 l -0.691406,-0.046875 -0.1757811,-0.15234375 V -3.4223516 c 0.4101561,-0.46875 0.7617191,-0.7265625 1.0898441,-0.7265625 0.210937,0 0.375,0.082031 0.503906,0.2460938 h 0.328125 v -0.8554688 c -0.210938,-0.09375 -0.398438,-0.1289062 -0.597656,-0.1289062 -0.08203,0 -0.175782,0 -0.257813,0.011719 -0.351562,0.2929688 -0.714844,0.609375 -1.0664061,0.9726563 v -0.9375 h -0.375 l -1.1484375,0.3515625 v 0.3164062 h 0.703125 v 3.60937504 l -0.1757813,0.15234375 -0.5273437,0.046875 z M 15.486523,-4.6176641 c -0.386718,-0.1875 -0.75,-0.2695312 -1.125,-0.2695312 -1.183593,0 -1.933593,0.6679687 -1.933593,1.640625 0,0.75 0.46875,1.3359375 1.230468,1.5 -0.316406,0.3867187 -0.480468,0.6914062 -0.480468,0.94921874 0,0.1640625 0.04687,0.3046875 0.105468,0.4453125 -0.679687,0.1171875 -1.078125,0.59765625 -1.078125,1.2421875 0,0.79687496 0.65625,1.27734376 1.804688,1.27734376 0.75,0 1.441406,-0.2226563 1.96875,-0.65625 0.386719,-0.3164063 0.597656,-0.75000001 0.597656,-1.11328126 0,-0.73828125 -0.515625,-1.04296875 -1.6875,-1.23046875 l -0.960937,-0.140625 C 13.91621,-1.0903203 13.90449,-1.1606328 13.90449,-1.2192266 c 0,-0.1523437 0.04687,-0.3046875 0.117188,-0.4453125 h 0.164062 c 1.160156,0 1.910156,-0.6679687 1.910156,-1.5585937 0,-0.3398438 -0.09375,-0.6328125 -0.28125,-0.9257813 h 1.089844 v -0.46875 z m -1.230468,0.1171875 c 0.574218,0 0.972656,0.46875 0.972656,1.21875 0,0.75 -0.398438,1.2304688 -0.972656,1.2304688 -0.574219,0 -0.972657,-0.4804688 -0.972657,-1.2304688 0,-0.7617187 0.398438,-1.21875 0.972657,-1.21875 z m -0.398438,4.19531254 0.972656,0.1875 c 0.691407,0.12890625 1.007813,0.234375 1.007813,0.7734375 0,0.56249996 -0.597656,1.05468746 -1.476563,1.05468746 -0.820312,0 -1.359375,-0.4570312 -1.359375,-1.03124996 0,-0.4453125 0.304688,-0.80859375 0.855469,-0.984375 z m 7.623047,-0.75000004 c -0.574219,0.37500004 -1.066406,0.57421879 -1.570312,0.57421879 -0.996094,0 -1.664063,-0.74999999 -1.664063,-2.02734379 v -0.1171875 h 3.222656 c 0.01172,-0.1054687 0.01172,-0.1992187 0.01172,-0.3046875 0,-1.21875 -0.714844,-1.9570312 -1.792969,-1.9570312 -1.335937,0 -2.308593,1.0195312 -2.308593,2.53125 0,1.45312499 0.914062,2.44921874 2.226562,2.44921874 0.632813,0 1.277344,-0.19921875 1.875,-0.59765625 z m -0.890625,-1.9804687 h -2.296875 c 0.05859,-0.8554688 0.621094,-1.40625 1.265625,-1.40625 0.667969,0 1.03125,0.4335937 1.03125,1.2421875 z m 1.623047,3.0351562375 h 2.390625 V -0.36375781 l -0.691406,-0.046875 -0.175782,-0.15234375 V -3.4223516 c 0.410157,-0.46875 0.761719,-0.7265625 1.089844,-0.7265625 0.210938,0 0.375,0.082031 0.503906,0.2460938 h 0.328125 v -0.8554688 c -0.210937,-0.09375 -0.398437,-0.1289062 -0.597656,-0.1289062 -0.08203,0 -0.175781,0 -0.257812,0.011719 -0.351563,0.2929688 -0.714844,0.609375 -1.066407,0.9726563 v -0.9375 h -0.375 l -1.148437,0.3515625 v 0.3164062 h 0.703125 v 3.60937504 l -0.175781,0.15234375 -0.527344,0.046875 z m 0,0"
       style="fill:#000000;fill-opacity:1;fill-rule:nonzero;stroke:none"
       aria-label="larger"
       transform="matrix(1.3333333,0,0,1.3333333,24.433333,186.58267)" />
    <path
       id="path77"
       d="m 0.444,1.2193281 c -0.0820313,0.3398438 -0.09375,0.4101563 -0.5390625,0.4101563 -0.1171875,0 -0.22265625,0 -0.22265625,0.1875 0,0.082031 0.046875,0.1171875 0.12890625,0.1171875 0.26953125,0 0.55078125,-0.035156 0.83203125,-0.035156 0.328125,0 0.66796875,0.035156 0.98437495,0.035156 0.058594,0 0.1875,0 0.1875,-0.1992188 0,-0.1054687 -0.1054687,-0.1054687 -0.2460937,-0.1054687 -0.4921875,0 -0.4921875,-0.070312 -0.4921875,-0.1640625 0,-0.1171875 0.421875,-1.74609377 0.4804687,-1.99218752 0.140625,0.29296875 0.4101563,0.6328125 0.9257813,0.6328125 1.1484375,0 2.4023437,-1.45312498 2.4023437,-2.91796878 0,-0.9375 -0.5742187,-1.59375 -1.3359375,-1.59375 -0.4921875,0 -0.9726562,0.3632813 -1.3007812,0.75 -0.09375,-0.5390625 -0.5273438,-0.75 -0.890625,-0.75 -0.45703125,0 -0.65625,0.3867188 -0.73828125,0.5742188 -0.1875,0.3398437 -0.31640625,0.9375 -0.31640625,0.9609375 0,0.1054687 0.10546875,0.1054687 0.12890625,0.1054687 0.09375,0 0.10546875,-0.011719 0.1640625,-0.234375 0.1640625,-0.703125 0.36328125,-1.1835937 0.72656245,-1.1835937 0.1757813,0 0.3046875,0.082031 0.3046875,0.4570312 0,0.234375 -0.023437,0.3398438 -0.070312,0.5039063 z m 1.7578125,-4.3242187 c 0.070312,-0.2695313 0.3398437,-0.5507813 0.515625,-0.703125 0.3515625,-0.3046875 0.6328125,-0.375 0.8085937,-0.375 0.3984375,0 0.6328125,0.3515625 0.6328125,0.9375 0,0.5859375 -0.328125,1.734375 -0.5039062,2.109375 -0.3398438,0.70312498 -0.8203125,1.03124998 -1.1835938,1.03124998 -0.65625,0 -0.7851562,-0.83203125 -0.7851562,-0.890625 0,-0.0234375 0,-0.0351563 0.023437,-0.16406248 z m 7.4970703,-0.6445313 c 0.011719,-0.070312 0.035156,-0.1171875 0.035156,-0.1875 0,-0.1640625 -0.1171875,-0.2695312 -0.2929688,-0.2695312 -0.09375,0 -0.3632812,0.070312 -0.4101562,0.4335937 -0.1757813,-0.375 -0.5273438,-0.6328125 -0.9257813,-0.6328125 -1.1367187,0 -2.3671875,1.3945313 -2.3671875,2.8359375 0,0.98437503 0.609375,1.570312525 1.3242188,1.570312525 0.5859375,0 1.0546875,-0.468749995 1.1601562,-0.574218745 l 0.011719,0.0117188 c -0.2109375,0.87890625 -0.328125,1.2890625 -0.328125,1.3125 -0.046875,0.0820313 -0.3867188,1.07812502 -1.4414063,1.07812502 -0.1875,0 -0.515625,-0.011719 -0.796875,-0.1054687 0.3046875,-0.09375 0.4101563,-0.3515625 0.4101563,-0.515625 0,-0.1640625 -0.1054688,-0.35156257 -0.375,-0.35156257 -0.2226563,0 -0.5390625,0.17578127 -0.5390625,0.57421877 0,0.4101563 0.3632812,0.609375 1.3242187,0.609375 1.2421875,0 1.9570313,-0.7734375 2.109375,-1.37109377 z m -1.2890625,2.4726563 c -0.058594,0.2578125 -0.2929687,0.51562498 -0.5039062,0.70312498 -0.2109375,0.17578125 -0.5273438,0.3515625 -0.8085938,0.3515625 -0.5039062,0 -0.65625,-0.515625 -0.65625,-0.91406248 0,-0.4804688 0.2929688,-1.6523438 0.5625,-2.15625 0.2695313,-0.4921875 0.703125,-0.890625 1.1132813,-0.890625 0.65625,0 0.796875,0.8085937 0.796875,0.8554687 0,0.046875 -0.011719,0.1054688 -0.023437,0.1523438 z m 0,0"
       style="fill:#8c8cff;fill-opacity:1;fill-rule:nonzero;stroke:none"
       aria-label="pg"
       transform="matrix(1.3333333,0,0,1.3333333,39.908,202.52267)" />
    <path
       id="path78"
       d="m 3.4206328,-4.6752031 c -0.328125,-0.140625 -0.7265625,-0.2109375 -1.1601562,-0.2109375 -1.1367188,0 -1.75781254,0.515625 -1.75781254,1.3945312 0,0.6679688 0.43359375,0.984375 1.27734374,1.359375 0.65625,0.3046875 1.0195313,0.4804688 1.0195313,0.9960938 0,0.46874998 -0.3632813,0.80859373 -0.9375,0.80859373 -0.2929688,0 -0.5625,-0.0820313 -0.84375,-0.234375 L 0.90110156,-1.4173906 H 0.42063281 v 1.30078123 c 0.33984375,0.12890625 0.78515629,0.2109375 1.28906249,0.2109375 1.1835938,0 1.8632813,-0.57421875 1.8632813,-1.50000003 0,-0.3632812 -0.140625,-0.6679687 -0.375,-0.8554687 -0.328125,-0.2695313 -0.703125,-0.4101563 -1.0546875,-0.5742188 -0.5625,-0.2695312 -0.84375,-0.4804687 -0.84375,-0.9140625 0,-0.4453125 0.2929687,-0.7148437 0.8203125,-0.7148437 0.234375,0 0.4804687,0.070312 0.7382812,0.2109375 l 0.082031,0.703125 h 0.4804687 z m 0,0"
       style="fill:#000000;fill-opacity:1;fill-rule:nonzero;stroke:none"
       aria-label="s"
       transform="matrix(1.3333333,0,0,1.3333333,53.404,202.52267)" />
  </g>
</svg>
